<?xml version="1.0" standalone="no"?>
<svg width="22pt" height="22pt" viewBox="0 0 100 100"
  xmlns="http://www.w3.org/2000/svg" xmlns:xlink="http://www.w3.org/1999/xlink" version="1.1">
  <defs>
    <clipPath id="exit-clip">
      <path d="M 5 85 L 5 5 L 60 5 L 60 85 L 100 100 L 45 100 z" id="exit" />
    </clipPath>
    <g id="human">
      <circle cx="35" cy="17" r="10" />
      <path d="M 5 20 C 20 50 65 0 85 30 C 60 30 50 30 50 50 S 65 90 95 55 C 80 90 45 90 40 60
               C 25 65 15 45 25 85 C 0 50 20 45 35 50 C 35 30 10 50 5 20 z" />
    </g>
  </defs>
  <rect width="100" height="100" fill="green" />
  <use xlink:href="#exit" fill="white" />
  <use xlink:href="#human" fill="white" />
  <use xlink:href="#human" fill="green" clip-path="url(#exit-clip)" />
</svg>
