<?xml version="1.0" standalone="no"?>
<svg width="16pt" height="16pt" viewBox="0 0 100 100"
  xmlns="http://www.w3.org/2000/svg" xmlns:xlink="http://www.w3.org/1999/xlink" version="1.1">
  <g fill="#dd4">
    <path d="M 0 90 L 0 20 Q 0 15 5 15 L 25 15 Q 30 15 30 20 L 30 25 L 75 25 Q 80 25 80 30
             L 80 90 Q 80 95 75 95 L 5 95 Q 0 95 0 90 z" />
  </g>
  <g stroke="#666" stroke-width="1" fill="white">
    <rect x="20" y="35" width="50" height="50" />
    <rect x="17" y="37" width="50" height="50" />
    <rect x="14" y="39" width="50" height="50" />
  </g>
  <g fill="#ff7">
    <path d="M 2 90 L 18 40 Q 20 45 25 45 L 95 45 Q 100 45 98 45 L 82 90 Q 80 95 75 95
             L 5 95 Q 0 95 2 90 z" />
  </g>
</svg>
